%TF.GenerationSoftware,KiCad,Pcbnew,9.0.5-9.0.5~ubuntu24.04.1*%
%TF.CreationDate,2025-11-18T18:30:51-05:00*%
%TF.ProjectId,teslaCoilSensor,7465736c-6143-46f6-996c-53656e736f72,rev?*%
%TF.SameCoordinates,Original*%
%TF.FileFunction,Soldermask,Top*%
%TF.FilePolarity,Negative*%
%FSLAX46Y46*%
G04 Gerber Fmt 4.6, Leading zero omitted, Abs format (unit mm)*
G04 Created by KiCad (PCBNEW 9.0.5-9.0.5~ubuntu24.04.1) date 2025-11-18 18:30:51*
%MOMM*%
%LPD*%
G01*
G04 APERTURE LIST*
G04 Aperture macros list*
%AMRoundRect*
0 Rectangle with rounded corners*
0 $1 Rounding radius*
0 $2 $3 $4 $5 $6 $7 $8 $9 X,Y pos of 4 corners*
0 Add a 4 corners polygon primitive as box body*
4,1,4,$2,$3,$4,$5,$6,$7,$8,$9,$2,$3,0*
0 Add four circle primitives for the rounded corners*
1,1,$1+$1,$2,$3*
1,1,$1+$1,$4,$5*
1,1,$1+$1,$6,$7*
1,1,$1+$1,$8,$9*
0 Add four rect primitives between the rounded corners*
20,1,$1+$1,$2,$3,$4,$5,0*
20,1,$1+$1,$4,$5,$6,$7,0*
20,1,$1+$1,$6,$7,$8,$9,0*
20,1,$1+$1,$8,$9,$2,$3,0*%
G04 Aperture macros list end*
%ADD10RoundRect,0.200000X-0.275000X0.200000X-0.275000X-0.200000X0.275000X-0.200000X0.275000X0.200000X0*%
%ADD11R,1.700000X1.700000*%
%ADD12RoundRect,0.150000X0.150000X-0.512500X0.150000X0.512500X-0.150000X0.512500X-0.150000X-0.512500X0*%
%ADD13RoundRect,0.200000X0.275000X-0.200000X0.275000X0.200000X-0.275000X0.200000X-0.275000X-0.200000X0*%
%ADD14RoundRect,0.225000X0.250000X-0.225000X0.250000X0.225000X-0.250000X0.225000X-0.250000X-0.225000X0*%
%ADD15RoundRect,0.250000X0.350000X-0.450000X0.350000X0.450000X-0.350000X0.450000X-0.350000X-0.450000X0*%
%ADD16C,1.100000*%
%ADD17C,2.200000*%
%ADD18RoundRect,0.249999X0.850001X0.850001X-0.850001X0.850001X-0.850001X-0.850001X0.850001X-0.850001X0*%
%ADD19RoundRect,0.200000X-0.200000X-0.275000X0.200000X-0.275000X0.200000X0.275000X-0.200000X0.275000X0*%
%ADD20RoundRect,0.200000X0.200000X0.275000X-0.200000X0.275000X-0.200000X-0.275000X0.200000X-0.275000X0*%
%ADD21RoundRect,0.150000X0.512500X0.150000X-0.512500X0.150000X-0.512500X-0.150000X0.512500X-0.150000X0*%
%ADD22RoundRect,0.225000X-0.250000X0.225000X-0.250000X-0.225000X0.250000X-0.225000X0.250000X0.225000X0*%
%ADD23C,1.400000*%
%ADD24RoundRect,0.075000X-0.700000X-0.075000X0.700000X-0.075000X0.700000X0.075000X-0.700000X0.075000X0*%
%ADD25RoundRect,0.075000X-0.075000X-0.700000X0.075000X-0.700000X0.075000X0.700000X-0.075000X0.700000X0*%
%ADD26RoundRect,0.225000X-0.225000X-0.250000X0.225000X-0.250000X0.225000X0.250000X-0.225000X0.250000X0*%
%ADD27RoundRect,0.225000X0.225000X0.250000X-0.225000X0.250000X-0.225000X-0.250000X0.225000X-0.250000X0*%
%ADD28C,1.600000*%
%ADD29C,3.200000*%
%ADD30RoundRect,0.102000X-0.604000X0.604000X-0.604000X-0.604000X0.604000X-0.604000X0.604000X0.604000X0*%
%ADD31RoundRect,0.243750X-0.243750X-0.456250X0.243750X-0.456250X0.243750X0.456250X-0.243750X0.456250X0*%
%ADD32RoundRect,0.249999X-0.850001X-0.850001X0.850001X-0.850001X0.850001X0.850001X-0.850001X0.850001X0*%
%ADD33RoundRect,0.087500X-0.087500X0.537500X-0.087500X-0.537500X0.087500X-0.537500X0.087500X0.537500X0*%
%ADD34RoundRect,0.243750X0.243750X0.456250X-0.243750X0.456250X-0.243750X-0.456250X0.243750X-0.456250X0*%
%ADD35C,7.000000*%
%ADD36RoundRect,0.102000X-1.500000X-3.750000X1.500000X-3.750000X1.500000X3.750000X-1.500000X3.750000X0*%
%ADD37RoundRect,0.150000X-0.150000X0.825000X-0.150000X-0.825000X0.150000X-0.825000X0.150000X0.825000X0*%
%ADD38RoundRect,0.250000X0.262500X0.450000X-0.262500X0.450000X-0.262500X-0.450000X0.262500X-0.450000X0*%
%ADD39C,1.700000*%
%ADD40RoundRect,0.200000X0.053033X-0.335876X0.335876X-0.053033X-0.053033X0.335876X-0.335876X0.053033X0*%
%ADD41RoundRect,0.102000X-0.635000X-0.279400X0.635000X-0.279400X0.635000X0.279400X-0.635000X0.279400X0*%
%ADD42RoundRect,0.150000X-0.250000X0.150000X-0.250000X-0.150000X0.250000X-0.150000X0.250000X0.150000X0*%
%ADD43RoundRect,0.250000X-0.312500X-0.625000X0.312500X-0.625000X0.312500X0.625000X-0.312500X0.625000X0*%
%ADD44RoundRect,0.150000X-0.512500X-0.150000X0.512500X-0.150000X0.512500X0.150000X-0.512500X0.150000X0*%
%ADD45RoundRect,0.250000X0.250000X-0.525000X0.250000X0.525000X-0.250000X0.525000X-0.250000X-0.525000X0*%
%ADD46R,1.500000X1.050000*%
%ADD47O,1.500000X1.050000*%
%ADD48RoundRect,0.060000X-0.415000X-0.140000X0.415000X-0.140000X0.415000X0.140000X-0.415000X0.140000X0*%
%ADD49RoundRect,0.150000X-0.150000X0.512500X-0.150000X-0.512500X0.150000X-0.512500X0.150000X0.512500X0*%
%ADD50O,0.299999X1.350000*%
%ADD51RoundRect,0.150000X0.150000X-0.587500X0.150000X0.587500X-0.150000X0.587500X-0.150000X-0.587500X0*%
%ADD52RoundRect,0.243750X0.456250X-0.243750X0.456250X0.243750X-0.456250X0.243750X-0.456250X-0.243750X0*%
G04 APERTURE END LIST*
D10*
%TO.C,R25*%
X135435300Y-113678200D03*
X135435300Y-115328200D03*
%TD*%
D11*
%TO.C,J16*%
X187096400Y-57099200D03*
%TD*%
D12*
%TO.C,U8*%
X141523900Y-122899600D03*
X142473900Y-122899600D03*
X143423900Y-122899600D03*
X143423900Y-120624600D03*
X141523900Y-120624600D03*
%TD*%
D13*
%TO.C,R9*%
X179650000Y-116575000D03*
X179650000Y-114925000D03*
%TD*%
D11*
%TO.C,J29*%
X116941600Y-61488383D03*
%TD*%
%TO.C,J18*%
X116950000Y-80300000D03*
%TD*%
D14*
%TO.C,C16*%
X134188000Y-89470200D03*
X134188000Y-87920200D03*
%TD*%
D15*
%TO.C,Y1*%
X131538000Y-88295200D03*
X131538000Y-86095200D03*
X129838000Y-86095200D03*
X129838000Y-88295200D03*
%TD*%
D14*
%TO.C,C3*%
X183750000Y-73025000D03*
X183750000Y-71475000D03*
%TD*%
D16*
%TO.C,TC1*%
X160757250Y-47872614D03*
X158217250Y-47872614D03*
D17*
X158217250Y-50412614D03*
D18*
X160757250Y-50412614D03*
%TD*%
D19*
%TO.C,R6*%
X134530517Y-60286411D03*
X136180517Y-60286411D03*
%TD*%
D20*
%TO.C,R11*%
X156831800Y-112598200D03*
X155181800Y-112598200D03*
%TD*%
%TO.C,R16*%
X136245741Y-74974586D03*
X134595741Y-74974586D03*
%TD*%
D21*
%TO.C,U4*%
X167563800Y-97205800D03*
X167563800Y-96255800D03*
X167563800Y-95305800D03*
X165288800Y-95305800D03*
X165288800Y-96255800D03*
X165288800Y-97205800D03*
%TD*%
D11*
%TO.C,J24*%
X130242210Y-50105114D03*
%TD*%
%TO.C,J28*%
X186944000Y-108966400D03*
%TD*%
D22*
%TO.C,C31*%
X171754800Y-94972800D03*
X171754800Y-96522800D03*
%TD*%
D23*
%TO.C,R24*%
X132234900Y-118160800D03*
X132234900Y-123240800D03*
%TD*%
D22*
%TO.C,C26*%
X179662500Y-118625000D03*
X179662500Y-120175000D03*
%TD*%
D21*
%TO.C,U11*%
X150007000Y-70683400D03*
X150007000Y-69733400D03*
X150007000Y-68783400D03*
X147732000Y-68783400D03*
X147732000Y-70683400D03*
%TD*%
D24*
%TO.C,U1*%
X139613000Y-84845200D03*
X139613000Y-85345200D03*
X139613000Y-85845200D03*
X139613000Y-86345200D03*
X139613000Y-86845200D03*
X139613000Y-87345200D03*
X139613000Y-87845200D03*
X139613000Y-88345200D03*
X139613000Y-88845200D03*
X139613000Y-89345200D03*
X139613000Y-89845200D03*
X139613000Y-90345200D03*
X139613000Y-90845200D03*
X139613000Y-91345200D03*
X139613000Y-91845200D03*
X139613000Y-92345200D03*
D25*
X141538000Y-94270200D03*
X142038000Y-94270200D03*
X142538000Y-94270200D03*
X143038000Y-94270200D03*
X143538000Y-94270200D03*
X144038000Y-94270200D03*
X144538000Y-94270200D03*
X145038000Y-94270200D03*
X145538000Y-94270200D03*
X146038000Y-94270200D03*
X146538000Y-94270200D03*
X147038000Y-94270200D03*
X147538000Y-94270200D03*
X148038000Y-94270200D03*
X148538000Y-94270200D03*
X149038000Y-94270200D03*
D24*
X150963000Y-92345200D03*
X150963000Y-91845200D03*
X150963000Y-91345200D03*
X150963000Y-90845200D03*
X150963000Y-90345200D03*
X150963000Y-89845200D03*
X150963000Y-89345200D03*
X150963000Y-88845200D03*
X150963000Y-88345200D03*
X150963000Y-87845200D03*
X150963000Y-87345200D03*
X150963000Y-86845200D03*
X150963000Y-86345200D03*
X150963000Y-85845200D03*
X150963000Y-85345200D03*
X150963000Y-84845200D03*
D25*
X149038000Y-82920200D03*
X148538000Y-82920200D03*
X148038000Y-82920200D03*
X147538000Y-82920200D03*
X147038000Y-82920200D03*
X146538000Y-82920200D03*
X146038000Y-82920200D03*
X145538000Y-82920200D03*
X145038000Y-82920200D03*
X144538000Y-82920200D03*
X144038000Y-82920200D03*
X143538000Y-82920200D03*
X143038000Y-82920200D03*
X142538000Y-82920200D03*
X142038000Y-82920200D03*
X141538000Y-82920200D03*
%TD*%
D26*
%TO.C,C32*%
X165734400Y-100650000D03*
X167284400Y-100650000D03*
%TD*%
D22*
%TO.C,C37*%
X156091700Y-60399400D03*
X156091700Y-61949400D03*
%TD*%
D26*
%TO.C,C29*%
X141175700Y-117170200D03*
X142725700Y-117170200D03*
%TD*%
D14*
%TO.C,C45*%
X145973900Y-71168800D03*
X145973900Y-69618800D03*
%TD*%
D27*
%TO.C,C13*%
X149475000Y-96850000D03*
X147925000Y-96850000D03*
%TD*%
D28*
%TO.C,J8*%
X189226850Y-84015025D03*
D29*
X181626850Y-86515025D03*
D28*
X189226850Y-89015025D03*
D30*
X186726850Y-87715025D03*
X186726850Y-85115025D03*
%TD*%
D31*
%TO.C,D1*%
X125117010Y-62176328D03*
X126992010Y-62176328D03*
%TD*%
D20*
%TO.C,R18*%
X136245741Y-67650946D03*
X134595741Y-67650946D03*
%TD*%
D16*
%TO.C,J22*%
X126257920Y-132280500D03*
X128797920Y-132280500D03*
D32*
X126257920Y-129740500D03*
D17*
X128797920Y-129740500D03*
%TD*%
D33*
%TO.C,U14*%
X144617500Y-100600000D03*
X144117500Y-100600000D03*
X143617500Y-100600000D03*
X143117500Y-100600000D03*
X143117500Y-103400000D03*
X143617500Y-103400000D03*
X144117500Y-103400000D03*
X144617500Y-103400000D03*
%TD*%
D26*
%TO.C,C28*%
X141475000Y-124850000D03*
X143025000Y-124850000D03*
%TD*%
D22*
%TO.C,C53*%
X143459200Y-108127800D03*
X143459200Y-109677800D03*
%TD*%
D14*
%TO.C,C7*%
X137588000Y-84870200D03*
X137588000Y-83320200D03*
%TD*%
%TO.C,C1*%
X176250000Y-70775000D03*
X176250000Y-69225000D03*
%TD*%
%TO.C,C9*%
X137718800Y-92342000D03*
X137718800Y-90792000D03*
%TD*%
D34*
%TO.C,D8*%
X136347200Y-69656960D03*
X134472200Y-69656960D03*
%TD*%
D14*
%TO.C,C39*%
X169337500Y-75650000D03*
X169337500Y-74100000D03*
%TD*%
%TO.C,C23*%
X168350000Y-113025000D03*
X168350000Y-111475000D03*
%TD*%
D35*
%TO.C,H2*%
X186944000Y-50105114D03*
%TD*%
D27*
%TO.C,C6*%
X181675000Y-75750000D03*
X180125000Y-75750000D03*
%TD*%
D11*
%TO.C,J11*%
X147250000Y-113450000D03*
%TD*%
D36*
%TO.C,L1*%
X181000000Y-65000000D03*
X186000000Y-65000000D03*
%TD*%
D14*
%TO.C,C62*%
X170800000Y-113025000D03*
X170800000Y-111475000D03*
%TD*%
D16*
%TO.C,J2*%
X178741750Y-47872614D03*
X176201750Y-47872614D03*
D18*
X178741750Y-50412614D03*
D17*
X176201750Y-50412614D03*
%TD*%
D14*
%TO.C,C59*%
X179390976Y-105972857D03*
X179390976Y-104422857D03*
%TD*%
D34*
%TO.C,D9*%
X162727502Y-86720000D03*
X160852500Y-86720000D03*
%TD*%
D19*
%TO.C,R10*%
X156675000Y-118000000D03*
X158325000Y-118000000D03*
%TD*%
D14*
%TO.C,C2*%
X178000000Y-70775000D03*
X178000000Y-69225000D03*
%TD*%
%TO.C,C42*%
X152340000Y-71700000D03*
X152340000Y-70150000D03*
%TD*%
D11*
%TO.C,J25*%
X165355360Y-130048000D03*
%TD*%
D27*
%TO.C,C33*%
X157305000Y-99680000D03*
X155755000Y-99680000D03*
%TD*%
D10*
%TO.C,R1*%
X178000000Y-72425000D03*
X178000000Y-74075000D03*
%TD*%
D37*
%TO.C,U6*%
X161781300Y-56935600D03*
X160511300Y-56935600D03*
X159241300Y-56935600D03*
X157971300Y-56935600D03*
X157971300Y-61885600D03*
X159241300Y-61885600D03*
X160511300Y-61885600D03*
X161781300Y-61885600D03*
%TD*%
D38*
%TO.C,R21*%
X182412500Y-90950000D03*
X180587500Y-90950000D03*
%TD*%
D37*
%TO.C,U7*%
X149733000Y-57610200D03*
X148463000Y-57610200D03*
X147193000Y-57610200D03*
X145923000Y-57610200D03*
X145923000Y-62560200D03*
X147193000Y-62560200D03*
X148463000Y-62560200D03*
X149733000Y-62560200D03*
%TD*%
D34*
%TO.C,D7*%
X136347200Y-76911200D03*
X134472200Y-76911200D03*
%TD*%
D22*
%TO.C,C30*%
X169926000Y-94972800D03*
X169926000Y-96522800D03*
%TD*%
%TO.C,C47*%
X157226000Y-95173200D03*
X157226000Y-96723200D03*
%TD*%
D11*
%TO.C,J6*%
X116941600Y-89698192D03*
D39*
X116941600Y-92238192D03*
X116941600Y-94778192D03*
X116941600Y-97318192D03*
X116941600Y-99858192D03*
%TD*%
D19*
%TO.C,R20*%
X171895000Y-82118200D03*
X173545000Y-82118200D03*
%TD*%
D11*
%TO.C,J12*%
X180061840Y-130048000D03*
%TD*%
D26*
%TO.C,C19*%
X165696600Y-98795800D03*
X167246600Y-98795800D03*
%TD*%
D31*
%TO.C,D5*%
X125077010Y-76961598D03*
X126952010Y-76961598D03*
%TD*%
D22*
%TO.C,C46*%
X144119600Y-60885000D03*
X144119600Y-62435000D03*
%TD*%
D14*
%TO.C,C38*%
X171987500Y-75650000D03*
X171987500Y-74100000D03*
%TD*%
%TO.C,C36*%
X156091700Y-58698200D03*
X156091700Y-57148200D03*
%TD*%
D22*
%TO.C,C48*%
X154750000Y-95175000D03*
X154750000Y-96725000D03*
%TD*%
D10*
%TO.C,R2*%
X176250000Y-72425000D03*
X176250000Y-74075000D03*
%TD*%
D19*
%TO.C,R5*%
X180050000Y-79600000D03*
X181700000Y-79600000D03*
%TD*%
D11*
%TO.C,J30*%
X151768144Y-130048000D03*
%TD*%
D40*
%TO.C,R26*%
X154533274Y-79216726D03*
X155700000Y-78050000D03*
%TD*%
D26*
%TO.C,C8*%
X140144200Y-80795200D03*
X141694200Y-80795200D03*
%TD*%
D22*
%TO.C,C50*%
X177162500Y-118625000D03*
X177162500Y-120175000D03*
%TD*%
D27*
%TO.C,C56*%
X140579100Y-112674400D03*
X139029100Y-112674400D03*
%TD*%
D26*
%TO.C,C21*%
X141400000Y-127300000D03*
X142950000Y-127300000D03*
%TD*%
%TO.C,C51*%
X143475000Y-106050000D03*
X145025000Y-106050000D03*
%TD*%
D41*
%TO.C,U15*%
X138963400Y-108102400D03*
X138963400Y-109042200D03*
X138963400Y-109982000D03*
X141554200Y-109982000D03*
X141554200Y-108102400D03*
%TD*%
D11*
%TO.C,J31*%
X175159680Y-130048000D03*
%TD*%
%TO.C,J17*%
X116941600Y-118414800D03*
%TD*%
D20*
%TO.C,R19*%
X154813000Y-87795200D03*
X153163000Y-87795200D03*
%TD*%
D14*
%TO.C,C40*%
X163314800Y-75294600D03*
X163314800Y-73744600D03*
%TD*%
D27*
%TO.C,C34*%
X159255000Y-102250000D03*
X157705000Y-102250000D03*
%TD*%
D11*
%TO.C,J26*%
X170257520Y-130048000D03*
%TD*%
D20*
%TO.C,R12*%
X156831800Y-110871000D03*
X155181800Y-110871000D03*
%TD*%
D42*
%TO.C,D10*%
X162000000Y-102848794D03*
X162000000Y-105347931D03*
%TD*%
D31*
%TO.C,D4*%
X134434860Y-62255400D03*
X136309860Y-62255400D03*
%TD*%
%TO.C,D3*%
X125117010Y-69659663D03*
X126992010Y-69659663D03*
%TD*%
D21*
%TO.C,U13*%
X174031250Y-105975000D03*
X174031250Y-105025000D03*
X174031250Y-104075000D03*
X171756250Y-104075000D03*
X171756250Y-105975000D03*
%TD*%
D22*
%TO.C,C18*%
X156794200Y-114299400D03*
X156794200Y-115849400D03*
%TD*%
D26*
%TO.C,C22*%
X141175700Y-118795800D03*
X142725700Y-118795800D03*
%TD*%
D14*
%TO.C,C14*%
X132181600Y-92367400D03*
X132181600Y-90817400D03*
%TD*%
D20*
%TO.C,R17*%
X143446000Y-78206600D03*
X141796000Y-78206600D03*
%TD*%
D26*
%TO.C,C49*%
X162225000Y-109500000D03*
X163775000Y-109500000D03*
%TD*%
D16*
%TO.C,J7*%
X169749500Y-47872614D03*
X167209500Y-47872614D03*
D18*
X169749500Y-50412614D03*
D17*
X167209500Y-50412614D03*
%TD*%
D16*
%TO.C,J3*%
X157683200Y-132280500D03*
X160223200Y-132280500D03*
D32*
X157683200Y-129740500D03*
D17*
X160223200Y-129740500D03*
%TD*%
D22*
%TO.C,C54*%
X146050000Y-108250000D03*
X146050000Y-109800000D03*
%TD*%
D11*
%TO.C,J1*%
X167910000Y-79800000D03*
D39*
X165370000Y-79800000D03*
X162830000Y-79800000D03*
X160290000Y-79800000D03*
%TD*%
D19*
%TO.C,R23*%
X125212667Y-67648244D03*
X126862667Y-67648244D03*
%TD*%
D11*
%TO.C,J4*%
X134600000Y-100000000D03*
%TD*%
D20*
%TO.C,R4*%
X181725000Y-77850000D03*
X180075000Y-77850000D03*
%TD*%
D11*
%TO.C,J14*%
X120900000Y-113900000D03*
%TD*%
%TO.C,J20*%
X136493140Y-50105114D03*
%TD*%
D14*
%TO.C,C41*%
X161714800Y-75294600D03*
X161714800Y-73744600D03*
%TD*%
D11*
%TO.C,J5*%
X134550000Y-105950000D03*
%TD*%
D19*
%TO.C,R7*%
X125200551Y-60222300D03*
X126850551Y-60222300D03*
%TD*%
D11*
%TO.C,J19*%
X186944000Y-99415600D03*
%TD*%
D43*
%TO.C,R13*%
X168164350Y-86315025D03*
X171089350Y-86315025D03*
%TD*%
D40*
%TO.C,R27*%
X152366637Y-78583363D03*
X153533363Y-77416637D03*
%TD*%
D44*
%TO.C,U9*%
X172362500Y-118850000D03*
X172362500Y-119800000D03*
X172362500Y-120750000D03*
X174637500Y-120750000D03*
X174637500Y-118850000D03*
%TD*%
D19*
%TO.C,R22*%
X162175000Y-107500000D03*
X163825000Y-107500000D03*
%TD*%
%TO.C,R14*%
X125212667Y-74924189D03*
X126862667Y-74924189D03*
%TD*%
D45*
%TO.C,SW2*%
X126900000Y-108150000D03*
X126900000Y-102900000D03*
X130100000Y-108150000D03*
X130100000Y-102900000D03*
%TD*%
D14*
%TO.C,C44*%
X144348300Y-71168800D03*
X144348300Y-69618800D03*
%TD*%
D20*
%TO.C,R3*%
X186075000Y-75750000D03*
X184425000Y-75750000D03*
%TD*%
D46*
%TO.C,Q2*%
X175200000Y-87550000D03*
D47*
X175200000Y-86280000D03*
X175200000Y-85010000D03*
%TD*%
D19*
%TO.C,R15*%
X138924264Y-106045679D03*
X140574264Y-106045679D03*
%TD*%
D35*
%TO.C,H4*%
X186944000Y-130048000D03*
%TD*%
D22*
%TO.C,C5*%
X186700000Y-71525000D03*
X186700000Y-73075000D03*
%TD*%
D27*
%TO.C,C10*%
X141948200Y-96520000D03*
X140398200Y-96520000D03*
%TD*%
D11*
%TO.C,J13*%
X124936280Y-50105114D03*
%TD*%
D26*
%TO.C,C61*%
X172018750Y-107725000D03*
X173568750Y-107725000D03*
%TD*%
D14*
%TO.C,C43*%
X154850000Y-71700000D03*
X154850000Y-70150000D03*
%TD*%
%TO.C,C60*%
X176650000Y-105975000D03*
X176650000Y-104425000D03*
%TD*%
D35*
%TO.C,H3*%
X116941600Y-130048000D03*
%TD*%
D22*
%TO.C,C25*%
X167062500Y-118500000D03*
X167062500Y-120050000D03*
%TD*%
D27*
%TO.C,C35*%
X140132400Y-101447600D03*
X138582400Y-101447600D03*
%TD*%
D22*
%TO.C,C4*%
X188450000Y-71525000D03*
X188450000Y-73075000D03*
%TD*%
D27*
%TO.C,C55*%
X140579100Y-114300000D03*
X139029100Y-114300000D03*
%TD*%
D11*
%TO.C,J21*%
X142744070Y-50105114D03*
%TD*%
D48*
%TO.C,U3*%
X160863721Y-112594576D03*
X160863721Y-113238678D03*
X160863721Y-113893287D03*
X160863721Y-114541218D03*
X165062869Y-114541218D03*
X165062790Y-113893287D03*
X165062790Y-113238678D03*
X165062790Y-112594576D03*
%TD*%
D11*
%TO.C,J27*%
X116941600Y-109261461D03*
%TD*%
D49*
%TO.C,U2*%
X181999800Y-71091200D03*
X181049800Y-71091200D03*
X180099800Y-71091200D03*
X180099800Y-73366200D03*
X181049800Y-73366200D03*
X181999800Y-73366200D03*
%TD*%
D11*
%TO.C,J9*%
X186944000Y-118517200D03*
%TD*%
D27*
%TO.C,C57*%
X141135400Y-98933000D03*
X139585400Y-98933000D03*
%TD*%
D50*
%TO.C,U5*%
X158934398Y-99618800D03*
X159434397Y-99618800D03*
X159934399Y-99618800D03*
X160434398Y-99618800D03*
X160934400Y-99618800D03*
X160934400Y-95168799D03*
X160434398Y-95168799D03*
X159934399Y-95168799D03*
X159434397Y-95168799D03*
X158934398Y-95168799D03*
%TD*%
D35*
%TO.C,H1*%
X116941600Y-50105114D03*
%TD*%
D22*
%TO.C,C15*%
X134188000Y-84520200D03*
X134188000Y-86070200D03*
%TD*%
D14*
%TO.C,C27*%
X144119600Y-59234600D03*
X144119600Y-57684600D03*
%TD*%
D51*
%TO.C,Q1*%
X173850000Y-62075000D03*
X175750000Y-62075000D03*
X174800000Y-60200000D03*
%TD*%
D22*
%TO.C,C24*%
X169462500Y-118525000D03*
X169462500Y-120075000D03*
%TD*%
%TO.C,C11*%
X153288000Y-84020200D03*
X153288000Y-85570200D03*
%TD*%
D27*
%TO.C,C12*%
X149475000Y-99450000D03*
X147925000Y-99450000D03*
%TD*%
D21*
%TO.C,U10*%
X167352300Y-74969600D03*
X167352300Y-74019600D03*
X167352300Y-73069600D03*
X165077300Y-73069600D03*
X165077300Y-74969600D03*
%TD*%
D11*
%TO.C,J10*%
X116941600Y-70891653D03*
%TD*%
D14*
%TO.C,C20*%
X163409200Y-95989400D03*
X163409200Y-94439400D03*
%TD*%
D16*
%TO.C,TC2*%
X151765000Y-47872614D03*
X149225000Y-47872614D03*
D17*
X149225000Y-50412614D03*
D18*
X151765000Y-50412614D03*
%TD*%
D26*
%TO.C,C17*%
X155000000Y-120000000D03*
X156550000Y-120000000D03*
%TD*%
D52*
%TO.C,D6*%
X182850000Y-116612500D03*
X182850000Y-114737500D03*
%TD*%
D43*
%TO.C,R8*%
X154010900Y-123113800D03*
X156935900Y-123113800D03*
%TD*%
D11*
%TO.C,J15*%
X169450000Y-67300000D03*
%TD*%
M02*
