M48
; DRILL file {KiCad 9.0.5-9.0.5~ubuntu24.04.1} date 2025-11-18T18:30:53-0500
; FORMAT={-:-/ absolute / metric / decimal}
; #@! TF.CreationDate,2025-11-18T18:30:53-05:00
; #@! TF.GenerationSoftware,Kicad,Pcbnew,9.0.5-9.0.5~ubuntu24.04.1
; #@! TF.FileFunction,Plated,1,4,PTH
FMAT,2
METRIC
; #@! TA.AperFunction,Plated,PTH,ViaDrill
T1C0.300
; #@! TA.AperFunction,Plated,PTH,ComponentDrill
T2C0.700
; #@! TA.AperFunction,Plated,PTH,ComponentDrill
T3C0.750
; #@! TA.AperFunction,Plated,PTH,ComponentDrill
T4C1.000
; #@! TA.AperFunction,Plated,PTH,ComponentDrill
T5C1.100
; #@! TA.AperFunction,Plated,PTH,ComponentDrill
T6C3.500
%
G90
G05
T1
X116.85Y-102.8
X116.85Y-104.5
X116.9Y-106.3
X116.9Y-111.9
X116.9Y-113.6
X116.95Y-82.65
X116.95Y-84.35
X116.95Y-115.4
X116.975Y-66.5
X117.0Y-64.5
X117.0Y-86.15
X117.05Y-55.2
X117.05Y-56.9
X117.05Y-68.0
X117.05Y-121.35
X117.05Y-123.05
X117.1Y-58.7
X117.1Y-73.85
X117.1Y-75.55
X117.1Y-124.85
X117.15Y-77.35
X121.9Y-130.7
X122.8Y-60.2
X123.6Y-62.2
X123.6Y-69.7
X123.9Y-74.9
X125.07Y-78.461
X125.2Y-65.4
X126.9Y-101.2
X126.9Y-109.5
X127.55Y-50.15
X128.524Y-88.29
X129.15Y-100.1
X129.8Y-91.9
X129.819Y-89.764
X130.251Y-100.127
X130.658Y-92.659
X130.962Y-90.83
X131.547Y-84.531
X132.867Y-84.531
X132.918Y-89.484
X133.1Y-60.3
X133.35Y-130.1
X133.4Y-62.3
X133.55Y-50.2
X134.188Y-83.414
X135.05Y-130.1
X135.433Y-117.348
X136.423Y-83.337
X136.449Y-84.887
X136.85Y-130.05
X137.414Y-67.64
X137.49Y-74.981
X137.516Y-69.647
X137.566Y-76.911
X137.65Y-112.65
X137.693Y-93.726
X137.719Y-109.068
X137.75Y-114.3
X138.55Y-130.15
X138.582Y-102.845
X139.4Y-50.0
X139.573Y-100.178
X139.8Y-123.3
X140.132Y-102.794
X140.157Y-79.553
X140.25Y-130.15
X140.386Y-97.663
X141.173Y-116.027
X141.275Y-90.322
X141.732Y-79.629
X141.783Y-76.987
X141.884Y-112.674
X142.037Y-92.812
X142.05Y-130.1
X142.2Y-59.85
X142.723Y-116.027
X142.818Y-60.882
X142.95Y-128.55
X142.951Y-62.422
X142.968Y-57.682
X143.025Y-126.075
X143.8Y-130.05
X143.815Y-118.796
X143.84Y-117.17
X143.9Y-97.8
X143.9Y-98.7
X144.118Y-56.522
X144.12Y-63.641
X144.15Y-104.85
X144.354Y-72.357
X144.374Y-68.576
X144.45Y-122.85
X144.628Y-109.753
X144.678Y-108.102
X144.8Y-96.0
X145.25Y-65.15
X145.5Y-130.05
X145.538Y-78.82
X145.55Y-103.4
X145.7Y-50.05
X145.75Y-100.6
X145.923Y-64.211
X145.948Y-68.576
X146.0Y-96.06
X146.15Y-106.05
X146.9Y-78.65
X147.3Y-130.0
X147.35Y-109.8
X147.9Y-98.0
X147.9Y-100.55
X148.3Y-78.4
X148.463Y-66.9
X148.539Y-92.786
X148.95Y-77.4
X149.5Y-100.6
X149.6Y-67.0
X149.758Y-55.869
X150.32Y-81.328
X151.15Y-82.2
X151.181Y-57.647
X151.25Y-68.8
X153.3Y-92.85
X153.45Y-70.15
X153.5Y-95.2
X153.5Y-96.75
X153.508Y-59.365
X154.337Y-59.33
X154.4Y-84.03
X154.4Y-85.6
X154.475Y-92.825
X154.614Y-57.125
X154.768Y-61.949
X154.95Y-50.25
X155.169Y-113.995
X155.2Y-91.45
X155.524Y-115.875
X155.75Y-98.55
X156.0Y-92.15
X156.0Y-96.75
X156.05Y-71.7
X156.088Y-56.058
X156.088Y-63.271
X156.2Y-70.15
X156.7Y-77.0
X156.8Y-55.2
X157.0Y-64.25
X157.65Y-101.15
X157.7Y-103.4
X157.971Y-63.5
X157.977Y-55.15
X158.15Y-91.4
X158.496Y-123.114
X158.521Y-64.55
X159.233Y-63.627
X159.3Y-103.4
X159.376Y-91.83
X159.8Y-114.55
X160.387Y-73.725
X160.85Y-115.35
X160.934Y-90.983
X161.0Y-89.8
X161.3Y-100.92
X161.65Y-92.925
X161.777Y-55.19
X162.1Y-99.6
X162.416Y-94.45
X162.8Y-92.05
X163.027Y-56.94
X163.325Y-76.392
X163.338Y-72.575
X163.95Y-50.5
X164.033Y-86.716
X165.862Y-120.0
X167.25Y-101.95
X167.7Y-130.05
X168.35Y-98.8
X168.362Y-120.1
X168.45Y-100.65
X168.7Y-97.75
X168.737Y-72.325
X169.63Y-111.5
X169.95Y-97.65
X170.588Y-74.125
X170.762Y-119.8
X171.75Y-97.7
X171.9Y-113.05
X172.0Y-111.5
X172.044Y-108.925
X172.7Y-130.0
X172.87Y-94.98
X173.05Y-50.45
X173.188Y-75.675
X173.338Y-74.125
X173.594Y-108.925
X173.6Y-81.1
X173.85Y-63.7
X174.099Y-71.625
X174.65Y-117.45
X174.9Y-70.8
X175.0Y-69.2
X175.05Y-103.1
X175.1Y-74.05
X175.75Y-63.45
X176.2Y-68.1
X177.4Y-116.4
X177.6Y-130.05
X177.9Y-104.4
X178.0Y-68.05
X178.362Y-120.2
X179.45Y-90.95
X180.5Y-104.45
X180.55Y-105.95
X180.862Y-120.2
X181.05Y-69.8
X182.05Y-50.15
X182.4Y-69.8
X182.7Y-79.6
X183.75Y-70.35
X186.7Y-70.3
X186.7Y-74.25
X186.85Y-77.7
X186.9Y-80.65
X186.9Y-82.25
X186.9Y-90.95
X186.9Y-92.15
X186.9Y-95.7
X186.9Y-96.9
X186.95Y-79.0
X186.95Y-93.1
X186.95Y-94.3
X186.95Y-104.9
X186.95Y-106.1
X186.95Y-114.3
X186.95Y-115.5
X187.0Y-102.3
X187.0Y-103.5
X187.0Y-111.7
X187.0Y-112.9
X187.0Y-124.1
X187.0Y-125.3
X187.05Y-54.6
X187.05Y-121.5
X187.05Y-122.7
X187.1Y-59.5
X187.2Y-75.75
X188.1Y-67.1
X188.15Y-65.0
X188.3Y-62.8
X188.45Y-70.35
X188.45Y-74.3
T2
X132.235Y-118.161
X132.235Y-123.241
X186.727Y-85.115
X186.727Y-87.715
T3
X175.2Y-85.01
X175.2Y-86.28
X175.2Y-87.55
T4
X116.942Y-61.488
X116.942Y-70.892
X116.942Y-89.698
X116.942Y-92.238
X116.942Y-94.778
X116.942Y-97.318
X116.942Y-99.858
X116.942Y-109.261
X116.942Y-118.415
X116.95Y-80.3
X120.9Y-113.9
X124.936Y-50.105
X130.242Y-50.105
X134.55Y-105.95
X134.6Y-100.0
X136.493Y-50.105
X142.744Y-50.105
X147.25Y-113.45
X151.768Y-130.048
X160.29Y-79.8
X162.83Y-79.8
X165.355Y-130.048
X165.37Y-79.8
X167.91Y-79.8
X169.45Y-67.3
X170.258Y-130.048
X175.16Y-130.048
X180.062Y-130.048
X186.944Y-99.416
X186.944Y-108.966
X186.944Y-118.517
X187.096Y-57.099
T5
X126.258Y-129.74
X128.798Y-129.74
X149.225Y-50.413
X151.765Y-50.413
X157.683Y-129.74
X158.217Y-50.413
X160.223Y-129.74
X160.757Y-50.413
X167.209Y-50.413
X169.749Y-50.413
X176.202Y-50.413
X178.742Y-50.413
T6
X116.942Y-50.105
X116.942Y-130.048
X186.944Y-50.105
X186.944Y-130.048
M30
